<svg height="480.08591pt" viewBox="0 0 480.08591 480.08591" width="480.08591pt" xmlns="http://www.w3.org/2000/svg" xmlns:xlink="http://www.w3.org/1999/xlink"><linearGradient id="a"><stop offset="0" stop-color="#006df0"/><stop offset="1" stop-color="#00e7f0"/></linearGradient><linearGradient id="b" gradientUnits="userSpaceOnUse" x1="90.850953" x2="90.850953" xlink:href="#a" y1="485.242953" y2="-24.541047"/><linearGradient id="c" gradientUnits="userSpaceOnUse" x1="240.042953" x2="240.042953" xlink:href="#a" y1="485.242953" y2="-24.541047"/><path d="m48.042969 240.042969c.152343-69.195313 37.410156-132.992188 97.601562-167.128907 2.578125-1.359374 4.210938-4.015624 4.265625-6.929687.050782-2.917969-1.488281-5.628906-4.015625-7.082031-2.527343-1.453125-5.648437-1.414063-8.140625.101562-84.09375 47.632813-124.410156 146.828125-97.398437 239.621094.992187 3.417969 4.121093 5.769531 7.679687 5.769531.757813-.007812 1.515625-.125 2.238282-.351562 4.238281-1.238281 6.671874-5.671875 5.441406-9.910157-5.105469-17.578124-7.691406-35.789062-7.671875-54.089843zm0 0" fill="url(#b)"/><path d="m409.777344 70.308594c-93.742188-93.746094-245.726563-93.746094-339.46875 0-93.746094 93.742187-93.746094 245.726562 0 339.46875 93.742187 93.746094 245.726562 93.746094 339.46875 0 93.746094-93.742188 93.746094-245.726563 0-339.46875zm54.121094 161.734375h-215.855469v-215.855469c117.457031 4.136719 211.71875 98.398438 215.855469 215.855469zm-231.855469-215.855469v220.542969l-156 156c-59.757813-64.199219-76.558594-157.367188-42.988281-238.398438 33.570312-81.027343 111.335937-135.015625 198.988281-138.144531zm8 447.855469c-56.671875.175781-111.277344-21.285157-152.664063-60l152.664063-152.6875 152.664062 152.6875c-41.386719 38.714843-95.992187 60.175781-152.664062 60zm164-71.335938-144.6875-144.664062h204.542969c-1.746094 53.886719-23.019532 105.296875-59.855469 144.664062zm0 0" fill="url(#c)"/></svg>